<?xml version="1.0" encoding="UTF-8" standalone="no"?>
<svg width="52px" height="58px" viewBox="0 0 52 58" version="1.1" xmlns="http://www.w3.org/2000/svg" xmlns:xlink="http://www.w3.org/1999/xlink" xmlns:sketch="http://www.bohemiancoding.com/sketch/ns">
    <!-- Generator: Sketch 3.5.1 (25234) - http://www.bohemiancoding.com/sketch -->
    <title>Untitled 2</title>
    <desc>Created with Sketch.</desc>
    <defs></defs>
    <g id="Page-1" stroke="none" stroke-width="1" fill="none" fill-rule="evenodd" sketch:type="MSPage">
        <path d="M37.674,20.558 C37.248,19.422 48.999,8.929 42.148,0.427 C40.545,-1.56 35.105,9.947 27.38,15.157 C23.118,18.031 13.201,24.149 13.201,27.531 L13.201,49.425 C13.201,53.492 28.926,57.799 40.875,57.799 C45.256,57.799 51.601,30.356 51.601,25.997 C51.601,21.619 38.094,21.696 37.675,20.557 L37.674,20.558 Z M10,20.862 C7.894,20.862 0.4,22.142 0.4,30.856 L0.4,46.37 C0.4,55.077 7.894,56.037 10,56.037 C12.102,56.037 6.8,54.207 6.8,48.805 L6.8,28.411 C6.8,22.753 12.102,20.862 10,20.862 L10,20.862 Z" id="Shape" fill="#FFFFFF" sketch:type="MSShapeGroup"></path>
    </g>
</svg>