<svg width="340px" height="50px" viewBox="0 0 340 50" version="1.1" xmlns="http://www.w3.org/2000/svg">
    <title>Roma Today Logo</title>
    <path d="M164.871865,12.125 L164.871865,3.125 L138,3.125 L138,12.125 L146.957288,12.125 L146.957288,47 L155.914577,47 L155.914577,12.125 L164.871865,12.125 Z M165.991526,24.5 C165.991526,41.1115702 171.896379,47 181.666781,47 C191.498057,47 197.342035,40.9256198 197.342035,24.5 C197.342035,7.95041322 191.437182,2 181.666781,2 C171.835505,2 165.991526,8.01239669 165.991526,24.5 L165.991526,24.5 Z M174.948814,24.5 C174.948814,14.279148 177.136059,11 181.666781,11 C186.135009,11 188.384747,14.2160874 188.384747,25.625 C188.384747,35.9719731 186.135009,39.125 181.666781,39.125 C177.136059,39.125 174.948814,35.845852 174.948814,24.5 L174.948814,24.5 Z M201.82068,3.125 L201.82068,47 L215.256612,47 C226.354636,47 230.931867,38.8517857 230.931867,25.625 C230.931867,11.3985714 226.049487,3.125 215.256612,3.125 L201.82068,3.125 Z M210.777968,38.1607143 L210.777968,12.2857143 L214.136951,12.2857143 C219.329225,12.2857143 221.974578,15.3514726 221.974578,25.7857143 C221.974578,34.8496953 219.329225,38.1607143 214.136951,38.1607143 L210.777968,38.1607143 Z M252.205427,39.125 L253.325088,47 L263.402037,47 L254.444749,3.125 L241.008816,3.125 L232.051528,47 L241.008816,47 L242.128477,39.125 L252.205427,39.125 Z M251.085766,30.125 L244.367799,30.125 L246.607121,18.875 C246.932841,15.2150493 247.604638,11.0629112 247.726782,11 L247.726782,11 C247.91,11.0629112 248.520724,15.2779605 248.846443,18.875 L251.085766,30.125 Z M281.316614,31.25 L292.513224,3.125 L283.555936,3.125 L279.077292,15.5 C278.115674,17.9171429 277.430077,20.3616071 276.83797,20 L276.83797,20 C277.056114,20.3616071 276.370517,17.9171429 275.718309,15.5 L271.239664,3.125 L261.162715,3.125 L272.359325,31.25 L272.359325,47 L281.316614,47 L281.316614,31.25 Z" class="logo-network"></path>
    <path d="M19.9175063,47 L30.0680101,47 L23.3010076,29 C27.1016528,27.1935714 29.1410234,22.9314286 28.9401763,17.75 C29.1410234,9.07946429 24.6914875,3.125 16.534005,3.125 L3,3.125 L3,47 L12.02267,47 L12.02267,31.25 L13.1505038,31.25 L14.2783375,31.25 L19.9175063,47 Z M12.02267,22.25 L12.02267,11 L15.4061713,11 C18.3992686,11 19.9175063,13.1315789 19.9175063,16.625 C19.9175063,20.4736842 18.21708,22.25 15.4061713,22.25 L12.02267,22.25 Z M32.3236776,24.5 C32.3236776,41.1115702 38.2716319,47 48.1133501,47 C58.0163875,47 63.9030227,40.9256198 63.9030227,24.5 C63.9030227,7.95041322 57.9550684,2 48.1133501,2 C38.2103128,2 32.3236776,8.01239669 32.3236776,24.5 L32.3236776,24.5 Z M41.3463476,24.5 C41.3463476,14.279148 43.5495577,11 48.1133501,11 C52.6141937,11 54.8803526,14.2160874 54.8803526,25.625 C54.8803526,35.9719731 52.6141937,39.125 48.1133501,39.125 C43.5495577,39.125 41.3463476,35.845852 41.3463476,24.5 L41.3463476,24.5 Z M93.2267003,47 L102.24937,47 L102.24937,3.125 L90.9710327,3.125 L85.331864,22.25 L85.331864,22.25 L78.5648615,3.125 L67.2865239,3.125 L67.2865239,47 L76.309194,47 L76.309194,34.625 C76.0116549,25.3758929 75.8870102,17.8544643 76.309194,17.75 L76.309194,17.75 C76.1362997,17.8544643 77.3204246,22.4926786 78.5648615,27.875 L81.9483627,36.875 L87.5875315,36.875 L90.9710327,27.875 C91.8415354,22.5553571 93.0256604,17.8544643 93.2267003,17.75 L93.2267003,17.75 C93.2749498,17.8544643 93.1503051,25.3758929 93.2267003,34.625 L93.2267003,47 Z M125.933879,39.125 L127.061713,47 L137.212217,47 L128.189547,3.125 L114.655542,3.125 L105.632872,47 L114.655542,47 L115.783375,39.125 L125.933879,39.125 Z M124.806045,30.125 L118.039043,30.125 L120.29471,18.875 C120.622807,15.2150493 121.299508,11.0629112 121.422544,11 L121.422544,11 C121.607099,11.0629112 122.222281,15.2779605 122.550378,18.875 L124.806045,30.125 Z" class="logo-edition"></path>
</svg>