<?xml version="1.0" encoding="UTF-8" standalone="no"?>
<svg width="93px" height="23px" viewBox="0 0 93 23" version="1.1" xmlns="http://www.w3.org/2000/svg" xmlns:xlink="http://www.w3.org/1999/xlink" xmlns:sketch="http://www.bohemiancoding.com/sketch/ns">
    <!-- Generator: Sketch 3.3.2 (12043) - http://www.bohemiancoding.com/sketch -->
    <title>citynews</title>
    <desc>Created with Sketch.</desc>
    <defs></defs>
    <g id="Page-1" stroke="none" stroke-width="1" fill="none" fill-rule="evenodd" sketch:type="MSPage">
        <path d="M7.625,9.775 L11.675,9.775 C11.675,8.92499575 11.5958341,8.15417012 11.4375,7.4625 C11.2791659,6.77082988 11.0041686,6.17916913 10.6125,5.6875 C10.2208314,5.19583087 9.69583662,4.81250138 9.0375,4.5375 C8.37916338,4.26249863 7.550005,4.125 6.55,4.125 C5.69999575,4.125 4.908337,4.2083325 4.175,4.375 C3.441663,4.5416675 2.80416938,4.88333075 2.2625,5.4 C1.72083063,5.91666925 1.29166825,6.6583285 0.975,7.625 C0.65833175,8.5916715 0.5,9.874992 0.5,11.475 C0.5,12.941674 0.64166525,14.1208289 0.925,15.0125 C1.20833475,15.9041711 1.60416412,16.5958309 2.1125,17.0875 C2.62083587,17.5791691 3.23332975,17.8999992 3.95,18.05 C4.66667025,18.2000007 5.458329,18.275 6.325,18.275 C8.24167625,18.275 9.62499575,17.8250045 10.475,16.925 C10.9083355,16.4416643 11.2166658,15.8250037 11.4,15.075 C11.5833343,14.3249963 11.675,13.416672 11.675,12.35 L7.625,12.35 L7.625,13.225 C7.625,14.0750043 7.51250113,14.6583318 7.2875,14.975 C7.06249888,15.2916683 6.74166875,15.45 6.325,15.45 C6.07499875,15.45 5.86250087,15.3875006 5.6875,15.2625 C5.51249913,15.1374994 5.3750005,14.9166683 5.275,14.6 C5.1749995,14.2833318 5.10416688,13.8541694 5.0625,13.3125 C5.02083312,12.7708306 5,12.0833375 5,11.25 C5,10.4166625 5.02083312,9.72916937 5.0625,9.1875 C5.10416688,8.64583063 5.1749995,8.21250162 5.275,7.8875 C5.3750005,7.56249838 5.51249913,7.33750062 5.6875,7.2125 C5.86250087,7.08749937 6.07499875,7.025 6.325,7.025 C6.80833575,7.025 7.14166575,7.21666475 7.325,7.6 C7.4250005,7.81666775 7.49999975,8.09583162 7.55,8.4375 C7.60000025,8.77916838 7.625,9.22499725 7.625,9.775 L7.625,9.775 Z M13,0.15 L13,3.5 L17.5,3.5 L17.5,0.15 L13,0.15 Z M13,4.475 L13,18 L17.5,18 L17.5,4.475 L13,4.475 Z M18.525,4.475 L18.525,7.5 L20.025,7.5 L20.025,14.7 C20.025,15.4500037 20.0958326,16.0541644 20.2375,16.5125 C20.3791674,16.9708356 20.6041651,17.3166655 20.9125,17.55 C21.2208349,17.7833345 21.6166642,17.9291664 22.1,17.9875 C22.5833358,18.0458336 23.1666632,18.075 23.85,18.075 C24.2333352,18.075 24.6333312,18.0625001 25.05,18.0375 C25.4666687,18.0124999 25.8833312,18 26.3,18 L26.3,15 L25.6,15 C25.2333315,15 24.9625009,14.9208341 24.7875,14.7625 C24.6124991,14.6041659 24.525,14.3333353 24.525,13.95 L24.525,7.5 L26.3,7.5 L26.3,4.475 L24.525,4.475 L24.525,0.5 L20.025,0.5 L20.025,4.475 L18.525,4.475 Z M27.6,19.075 L27.6,22.225 C27.9833352,22.2583335 28.3791646,22.2833332 28.7875,22.3 C29.1958354,22.3166667 29.6416643,22.325 30.125,22.325 C30.725003,22.325 31.258331,22.2666672 31.725,22.15 C32.191669,22.0333327 32.6041649,21.8250015 32.9625,21.525 C33.3208351,21.2249985 33.6291654,20.8208359 33.8875,20.3125 C34.1458346,19.8041641 34.374999,19.1583373 34.575,18.375 L38.2,4.475 L33.7,4.475 L32.4,13.6 L32.35,13.6 L30.975,4.475 L26.35,4.475 L29.9,17.225 C29.9500003,17.4083343 29.9958331,17.5833325 30.0375,17.75 C30.0791669,17.9166675 30.1,18.0499995 30.1,18.15 C30.1,18.216667 30.0750003,18.3083327 30.025,18.425 C29.9749997,18.5416673 29.8916673,18.6541661 29.775,18.7625 C29.6583328,18.8708339 29.5041676,18.9666663 29.3125,19.05 C29.1208324,19.1333338 28.8833348,19.175 28.6,19.175 C28.4333325,19.175 28.2666675,19.1666667 28.1,19.15 C27.9333325,19.1333332 27.7666675,19.1083335 27.6,19.075 L27.6,19.075 Z M38.825,4.475 L38.825,18 L43.325,18 L43.325,9.075 C43.325,8.5083305 43.4083325,8.10000125 43.575,7.85 C43.7416675,7.59999875 44.024998,7.475 44.425,7.475 C44.825002,7.475 45.1083325,7.59999875 45.275,7.85 C45.4416675,8.10000125 45.525,8.5083305 45.525,9.075 L45.525,18 L50.025,18 L50.025,7.8 C50.025,7.066663 49.9333343,6.466669 49.75,6 C49.5666657,5.533331 49.3166683,5.15833475 49,4.875 C48.6833318,4.59166525 48.3125021,4.39583387 47.8875,4.2875 C47.4624979,4.17916613 47.0000025,4.125 46.5,4.125 C44.899992,4.125 43.8083363,4.79166 43.225,6.125 L43.175,6.125 L43.175,4.475 L38.825,4.475 Z M58.4,8.95 L58.4,9.55 L55.925,9.55 L55.925,8.95 C55.925,8.23332975 56.0124991,7.708335 56.1875,7.375 C56.3625009,7.041665 56.683331,6.875 57.15,6.875 C57.6333358,6.875 57.9624991,7.041665 58.1375,7.375 C58.3125009,7.708335 58.4,8.23332975 58.4,8.95 L58.4,8.95 Z M55.925,12 L62.6,12 L62.6,10.625 C62.6,9.3916605 62.4875011,8.36250412 62.2625,7.5375 C62.0374989,6.71249587 61.6958356,6.04583587 61.2375,5.5375 C60.7791644,5.02916412 60.2125034,4.66666775 59.5375,4.45 C58.8624966,4.23333225 58.0750045,4.125 57.175,4.125 C56.1583283,4.125 55.2875036,4.25416537 54.5625,4.5125 C53.8374964,4.77083463 53.241669,5.1833305 52.775,5.75 C52.308331,6.3166695 51.9666677,7.0499955 51.75,7.95 C51.5333322,8.8500045 51.425,9.9499935 51.425,11.25 C51.425,12.5333397 51.5208324,13.6249955 51.7125,14.525 C51.9041676,15.4250045 52.2249977,16.1541639 52.675,16.7125 C53.1250023,17.2708361 53.716663,17.6708321 54.45,17.9125 C55.183337,18.1541679 56.0916613,18.275 57.175,18.275 C59.041676,18.275 60.3833292,17.8541709 61.2,17.0125 C62.0166707,16.1708291 62.4416665,14.916675 62.475,13.25 L58.425,13.25 C58.425,14.1666713 58.3125011,14.7874984 58.0875,15.1125 C57.8624989,15.4375016 57.550002,15.6 57.15,15.6 C56.8333318,15.6 56.5500013,15.4791679 56.3,15.2375 C56.0499988,14.9958321 55.925,14.508337 55.925,13.775 L55.925,12 Z M62.95,4.475 L65.7,18 L70.8,18 L72.175,8.425 L72.225,8.425 L73.6,18 L78.7,18 L81.45,4.475 L77.1,4.475 L75.975,14.2 L75.925,14.2 L74.6,4.475 L69.8,4.475 L68.475,14.2 L68.425,14.2 L67.3,4.475 L62.95,4.475 Z M85.825,13.8 L81.875,13.8 C81.875,15.2833407 82.2874959,16.3999962 83.1125,17.15 C83.9375041,17.9000037 85.2916573,18.275 87.175,18.275 C88.0250042,18.275 88.7874966,18.175001 89.4625,17.975 C90.1375034,17.774999 90.7041644,17.475002 91.1625,17.075 C91.6208356,16.674998 91.9749987,16.2000027 92.225,15.65 C92.4750012,15.0999973 92.6,14.49167 92.6,13.825 C92.6,12.958329 92.4375016,12.2625026 92.1125,11.7375 C91.7874984,11.2124974 91.3833358,10.7958349 90.9,10.4875 C90.4166642,10.1791651 89.8958361,9.9416675 89.3375,9.775 C88.7791639,9.6083325 88.2583358,9.45000075 87.775,9.3 C87.2916642,9.14999925 86.8875016,8.97916762 86.5625,8.7875 C86.2374984,8.59583237 86.075,8.30833525 86.075,7.925 C86.075,7.591665 86.1833323,7.33333425 86.4,7.15 C86.6166678,6.96666575 86.891665,6.875 87.225,6.875 C87.6083353,6.875 87.9041656,6.97916562 88.1125,7.1875 C88.3208344,7.39583438 88.425,7.79166375 88.425,8.375 L92.325,8.375 C92.325,5.5416525 90.6333503,4.125 87.25,4.125 C86.3333288,4.125 85.5375034,4.23333225 84.8625,4.45 C84.1874966,4.66666775 83.6291689,4.96666475 83.1875,5.35 C82.7458311,5.73333525 82.4166677,6.17916412 82.2,6.6875 C81.9833322,7.19583588 81.875,7.749997 81.875,8.35 C81.875,9.20000425 82.0374984,9.88749737 82.3625,10.4125 C82.6875016,10.9375026 83.0916643,11.3583318 83.575,11.675 C84.0583357,11.9916682 84.5791639,12.2416658 85.1375,12.425 C85.6958361,12.6083342 86.2166643,12.7833325 86.7,12.95 C87.1833357,13.1166675 87.5874984,13.3083323 87.9125,13.525 C88.2375016,13.7416678 88.4,14.049998 88.4,14.45 C88.4,14.8166685 88.2708346,15.099999 88.0125,15.3 C87.7541654,15.500001 87.4500018,15.6 87.1,15.6 C86.6833313,15.6 86.3666678,15.4416683 86.15,15.125 C86.0333327,14.9749992 85.9500003,14.7833345 85.9,14.55 C85.8499997,14.3166655 85.825,14.066668 85.825,13.8 L85.825,13.8 Z" id="citynews" fill="#BDBDBD" sketch:type="MSShapeGroup"></path>
    </g>
</svg>