<?xml version="1.0" encoding="UTF-8" standalone="no"?>
<svg width="193px" height="56px" viewBox="0 0 193 56" version="1.1" xmlns="http://www.w3.org/2000/svg" xmlns:xlink="http://www.w3.org/1999/xlink" xmlns:sketch="http://www.bohemiancoding.com/sketch/ns">
    <!-- Generator: Sketch 3.3.2 (12043) - http://www.bohemiancoding.com/sketch -->
    <title>TODAY</title>
    <desc>Created with Sketch.</desc>
    <defs></defs>
    <g id="Page-1" stroke="none" stroke-width="1" fill="none" fill-rule="evenodd" sketch:type="MSPage">
        <path d="M33.2451791,11.7245179 L33.2451791,1.00275482 L0,1.00275482 L0,11.7245179 L11.030303,11.7245179 L11.030303,54.9972452 L22.214876,54.9972452 L22.214876,11.7245179 L33.2451791,11.7245179 Z M35.0964187,27.922865 C35.0964187,48.6721763 42.5785124,56 54.9201102,56 C67.415978,56 74.8209366,48.4407713 74.8209366,28.077135 C74.8209366,7.40495868 67.338843,0 54.9201102,0 C42.5013774,0 35.0964187,7.48209366 35.0964187,27.922865 L35.0964187,27.922865 Z M46.6666667,27.84573 C46.6666667,14.8099174 49.3663912,10.7988981 54.9972452,10.7988981 C60.4738292,10.7988981 63.2506887,14.7327824 63.2506887,28.15427 C63.2506887,41.3443526 60.4738292,45.2011019 54.9972452,45.2011019 C49.3663912,45.2011019 46.6666667,41.1900826 46.6666667,27.84573 L46.6666667,27.84573 Z M79.4490358,1.00275482 L79.4490358,54.9972452 L96.6501377,54.9972452 C110.4573,54.9972452 116.242424,44.969697 116.242424,28.231405 C116.242424,11.184573 110.071625,1.00275482 96.1873278,1.00275482 L79.4490358,1.00275482 Z M90.7107438,44.2754821 L90.7107438,11.7245179 L95.261708,11.7245179 C101.432507,11.7245179 104.749311,15.5812672 104.749311,28.5399449 C104.749311,40.1101928 101.432507,44.2754821 95.107438,44.2754821 L90.7107438,44.2754821 Z M142.77686,45.5096419 L144.473829,54.9972452 L156.275482,54.9972452 L144.936639,1.00275482 L128.892562,1.00275482 L117.553719,54.9972452 L128.969697,54.9972452 L130.589532,45.5096419 L142.77686,45.5096419 Z M140.92562,35.0964187 L132.440771,35.0964187 L134.831956,21.5977961 C135.680441,16.815427 136.528926,11.7245179 136.528926,11.6473829 L136.837466,11.6473829 C136.914601,11.7245179 137.68595,16.892562 138.534435,21.6749311 L140.92562,35.0964187 Z M178.490358,35.7134986 L192.143251,1.00275482 L180.650138,1.00275482 L175.482094,15.8898072 C174.325069,19.2066116 173.476584,22.214876 173.399449,22.292011 L173.090909,22.292011 C173.013774,22.214876 172.165289,19.2066116 171.085399,15.8126722 L166.071625,1.00275482 L153.344353,1.00275482 L167.22865,35.7134986 L167.22865,54.9972452 L178.490358,54.9972452 L178.490358,35.7134986 Z" id="TODAY" fill="#2A9DDB" sketch:type="MSShapeGroup"></path>
    </g>
</svg>